<svg width="47" height="54" viewBox="0 0 47 54" fill="none" xmlns="http://www.w3.org/2000/svg">
<path d="M39.012 24.0839L43.764 31.2119C53.808 46.4399 29.94 62.2079 19.788 46.9799L15.036 39.8519C11.688 34.7759 12.12 29.6999 14.496 25.7039C9.95998 23.7599 2.07598 23.7599 2.07598 23.7599C0.887976 23.7599 0.455976 22.3559 1.31998 21.5999C1.85998 21.0599 4.55998 18.7919 8.23198 17.7119C4.99198 16.4159 1.64398 16.0919 1.21198 16.0919C0.131976 15.9839 -0.408024 14.6879 0.455976 13.9319C0.887976 13.6079 1.31998 13.2839 1.75198 12.9599C3.80398 11.5559 6.17998 10.9079 8.55598 11.0159L8.23198 5.39992C8.23198 4.75192 8.66398 4.10392 9.41998 4.10392C9.63598 4.10392 9.85198 4.10392 10.068 4.21192L15.036 6.69592C15.9 4.53592 17.52 2.59192 19.572 1.18792C20.76 0.43192 23.46 -0.324081 22.596 2.05192C22.38 2.69992 21.408 5.72392 21.3 9.07192C23.568 6.26392 26.592 4.75192 27.456 4.31992C28.644 3.77992 29.724 4.64392 29.292 5.83192C29.292 5.83192 26.268 13.0679 26.268 18.0359C30.804 17.3879 35.664 19.0079 39.012 24.0839ZM29.832 20.5199L26.592 26.3519L32.964 25.5959L34.584 22.6799C33.072 21.4919 31.452 20.8439 29.832 20.5199ZM36.312 24.5159L35.88 25.2719L36.744 25.1639C36.636 24.9479 36.42 24.7319 36.312 24.5159ZM38.256 27.4319L34.368 27.8639L31.128 33.5879L37.608 32.8319L39.552 29.4839L38.256 27.4319ZM41.172 31.7519L40.74 32.5079L41.604 32.3999L41.172 31.7519ZM42.792 34.6679L39.228 35.0999L36.096 40.7159L43.548 39.8519C43.764 38.2319 43.548 36.5039 42.792 34.6679ZM43.008 42.3359L34.692 43.3079L30.48 50.6519C35.772 50.8679 41.172 47.3039 43.008 42.3359ZM27.888 50.2199L31.668 43.6319L25.296 44.3879L23.46 47.6279C24.756 48.9239 26.268 49.7879 27.888 50.2199ZM21.84 45.5759L22.272 44.7119L21.3 44.8199L21.84 45.5759ZM19.788 42.5519L23.784 42.1199L27.024 36.3959L20.544 37.1519L18.6 40.6079L19.788 42.5519ZM16.98 38.2319L17.412 37.3679L16.548 37.4759C16.764 37.7999 16.872 38.0159 16.98 38.2319ZM15.576 35.2079L18.924 34.7759L22.056 29.1599L15.36 30.0239C15.036 31.6439 15.036 33.3719 15.576 35.2079ZM16.332 27.4319L23.568 26.5679L27.132 20.3039C22.704 20.6279 18.384 23.5439 16.332 27.4319ZM28.32 33.8039L31.452 28.1879L25.08 28.9439L21.948 34.5599L28.32 33.8039ZM33.072 41.0399L36.204 35.4239L29.832 36.1799L26.7 41.7959L33.072 41.0399ZM10.932 11.2319C12.012 11.4479 13.092 11.8799 14.064 12.4199C13.956 11.3399 13.956 10.1519 14.172 9.07192L10.716 7.34392L10.932 11.2319ZM14.388 23.0039C14.064 22.4639 13.632 21.9239 13.308 21.3839C12.876 20.6279 12.228 19.9799 11.58 19.4399C9.20398 19.5479 7.15198 20.4119 5.63998 21.3839C8.12398 21.5999 11.58 22.0319 14.388 23.0039ZM16.98 22.4639C17.412 22.0319 17.952 21.5999 18.384 21.1679L15.684 17.0639C13.308 13.3919 8.55598 12.4199 4.55998 13.9319C7.90798 14.5799 12.768 16.1999 15.252 19.9799C15.9 20.8439 16.44 21.7079 16.98 22.4639ZM21.624 12.8519C21.84 13.7159 22.164 14.4719 22.704 15.2279L23.784 16.8479C24 13.8239 24.972 10.4759 25.728 8.09992C24.324 9.17992 22.704 10.6919 21.624 12.8519ZM20.544 19.8719C21.084 19.5479 21.732 19.2239 22.272 19.0079C21.732 18.1439 21.192 17.3879 20.652 16.5239C18.168 12.8519 18.6 7.66792 19.248 4.31992C16.224 7.34392 15.36 12.0959 17.736 15.7679L20.544 19.8719Z" fill="#866EEA"/>
</svg>
